#N canvas 0 0 900 700 12;
#X text 50 30 🚀 pd-node Hello World Demo;
#X text 50 60 Click the bangs below to test JavaScript execution!;
#X text 50 550 💡 TIP: Open the Plugdata console to see JavaScript logs;
#X text 50 580 💡 File: ../examples/hello.js (check it out!);
#X obj 100 150 bng 30 250 50 0 empty empty BANG 0 -8 0 12 #fcfcfc #000000 #000000;
#X obj 100 200 node ../examples/hello.js;
#X obj 100 250 print OUTPUT;
#X text 200 150 <- Click to send bang;
#X text 200 200 <- JavaScript execution;
#X text 200 250 <- See output here;
#X text 50 320 Test with NUMBERS:;
#X floatatom 100 360 5 0 0 0 - - - 0;
#X obj 100 390 node ../examples/hello.js;
#X floatatom 100 420 5 0 0 0 - - - 0;
#X text 200 360 <- Enter a number;
#X text 200 420 <- Doubled!;
#X text 50 480 What's happening:;
#X text 70 500 ✅ Bun spawns as child process;
#X text 70 520 ✅ JavaScript receives PD messages;
#X text 70 540 ✅ JavaScript sends messages back;
#X connect 4 0 5 0;
#X connect 5 0 6 0;
#X connect 11 0 12 0;
#X connect 12 0 13 0;
