#N canvas 0 0 900 700 12;
#X text 50 30 🎵 pd-node Music Theory Demo (Teoria.js);
#X text 50 60 Generate chords using the Teoria npm package!;
#X text 50 550 💡 This uses a REAL npm package (teoria);
#X text 50 570 💡 File: ~/pd-scripts/chords.js;
#X symbolatom 100 150 10 0 0 0 Note - - 0;
#X obj 100 190 node ~/pd-scripts/chords.js;
#X unpack f f f;
#X floatatom 100 260 5 0 0 0 Root - - 0;
#X floatatom 200 260 5 0 0 0 Third - - 0;
#X floatatom 300 260 5 0 0 0 Fifth - - 0;
#X text 200 150 <- Try: C4 \, D4 \, E4 \, F#4;
#X text 50 320 Try these notes:;
#X msg 100 350 symbol C4;
#X msg 100 380 symbol D#4;
#X msg 100 410 symbol F4;
#X msg 100 440 symbol A4;
#X text 200 350 <- C major chord;
#X text 200 380 <- D# major chord;
#X text 200 410 <- F major chord;
#X text 200 440 <- A major chord;
#X text 50 490 What's happening:;
#X text 70 510 ✅ Teoria.js calculates chord notes;
#X text 70 530 ✅ Returns MIDI note numbers;
#X text 70 550 ✅ Use with [mtof] for frequencies!;
#X connect 4 0 5 0;
#X connect 5 0 6 0;
#X connect 6 0 7 0;
#X connect 6 1 8 0;
#X connect 6 2 9 0;
#X connect 12 0 4 0;
#X connect 13 0 4 0;
#X connect 14 0 4 0;
#X connect 15 0 4 0;
