#N canvas 0 0 900 700 12;
#X text 50 30 🌤️ pd-node Weather Sonification Demo;
#X text 50 60 Fetch live weather data and convert to musical parameters!;
#X text 50 550 💡 Uses wttr.in API for real weather data;
#X text 50 570 💡 File: ~/pd-scripts/weather-sonify.js;
#X text 50 590 ⚠️ Requires internet connection!;
#X obj 100 150 bng 40 250 50 0 empty empty Fetch_Weather 0 -8 0 14 #fcfcfc #000000 #000000;
#X obj 100 210 node ~/pd-scripts/weather-sonify.js;
#X obj 100 240 unpack f f f f;
#X floatatom 100 280 7 0 0 0 Temp_Hz - - 0;
#X floatatom 220 280 7 0 0 0 Humidity_Vol - - 0;
#X floatatom 340 280 7 0 0 0 Wind_Speed - - 0;
#X floatatom 460 280 7 0 0 0 Cloud_Filter - - 0;
#X text 200 150 <- Click to fetch;
#X text 50 330 Musical Mapping:;
#X text 70 355 🌡️ Temperature → Frequency (200-800 Hz);
#X text 70 380 💧 Humidity → Volume (0-1);
#X text 70 405 💨 Wind Speed → LFO Rate;
#X text 70 430 ☁️ Cloud Cover → Filter Cutoff;
#X text 50 470 What's happening:;
#X text 70 490 ✅ async/await fetches weather API;
#X text 70 510 ✅ JSON parsing in JavaScript;
#X text 70 530 ✅ Real-time data → music params;
#X connect 5 0 6 0;
#X connect 6 0 7 0;
#X connect 7 0 8 0;
#X connect 7 1 9 0;
#X connect 7 2 10 0;
#X connect 7 3 11 0;
